<?xml version="1.0" standalone="no"?>
<!DOCTYPE svg PUBLIC "-//W3C//DTD SVG 20010904//EN"
 "http://www.w3.org/TR/2001/REC-SVG-20010904/DTD/svg10.dtd">
<svg version="1.0" xmlns="http://www.w3.org/2000/svg"
 width="512.000000pt" height="512.000000pt" viewBox="0 0 512.000000 512.000000"
 preserveAspectRatio="xMidYMid meet">

<g transform="translate(0.000000,512.000000) scale(0.100000,-0.100000)"
fill="#000000" stroke="none">
<path d="M2380 4465 c-293 -47 -576 -227 -747 -476 -83 -121 -153 -299 -178
-454 -21 -127 -21 -703 0 -830 49 -302 225 -580 476 -752 124 -85 303 -155
459 -178 611 -93 1183 326 1275 935 21 133 21 687 0 820 -43 285 -199 549
-427 721 -246 185 -554 262 -858 214z m370 -328 c209 -57 368 -171 480 -344
50 -76 79 -142 108 -248 14 -51 17 -115 17 -425 0 -310 -3 -374 -17 -425 -60
-216 -171 -372 -345 -485 -136 -89 -259 -125 -433 -125 -174 0 -297 36 -433
125 -172 112 -282 264 -345 480 -21 73 -30 675 -12 790 54 338 300 594 640
666 80 17 262 12 340 -9z"/>
<path d="M1055 2386 c-42 -19 -83 -69 -91 -113 -16 -84 37 -295 109 -438 55
-111 108 -186 193 -275 216 -226 530 -365 954 -422 123 -16 555 -16 680 0 643
85 1050 371 1210 850 40 119 58 247 42 300 -33 108 -171 146 -257 71 -38 -33
-50 -66 -59 -153 -4 -33 -18 -93 -32 -135 -99 -297 -375 -505 -777 -586 -220
-44 -464 -56 -697 -34 -384 35 -670 151 -851 347 -114 123 -177 260 -198 428
-10 80 -26 112 -73 147 -33 25 -113 32 -153 13z"/>
<path d="M2485 951 c-135 -35 -231 -150 -243 -287 -10 -126 53 -240 168 -303
60 -33 71 -36 150 -36 72 1 93 5 136 27 75 40 107 70 145 140 31 58 34 70 34
148 0 78 -3 90 -34 148 -57 104 -144 160 -260 167 -36 2 -79 1 -96 -4z"/>
</g>
</svg>
