<?xml version="1.0" standalone="no"?>
<!DOCTYPE svg PUBLIC "-//W3C//DTD SVG 20010904//EN"
 "http://www.w3.org/TR/2001/REC-SVG-20010904/DTD/svg10.dtd">
<svg version="1.0" xmlns="http://www.w3.org/2000/svg"
 width="512.000000pt" height="512.000000pt" viewBox="0 0 512.000000 512.000000"
 preserveAspectRatio="xMidYMid meet">

<g transform="translate(0.000000,512.000000) scale(0.100000,-0.100000)"
fill="#000000" stroke="none">
<path d="M2375 4625 c-164 -29 -343 -104 -469 -197 -82 -60 -106 -97 -106
-163 0 -93 62 -155 155 -155 45 0 61 7 149 64 231 152 484 184 730 95 272 -98
474 -347 516 -635 8 -53 10 -188 8 -404 -4 -295 -7 -332 -26 -400 -12 -41 -22
-92 -22 -114 0 -55 35 -112 85 -136 104 -51 197 2 236 135 41 137 49 223 49
560 0 436 -19 549 -128 759 -147 284 -407 492 -719 572 -124 32 -335 41 -458
19z"/>
<path d="M1055 4306 c-67 -29 -105 -105 -90 -183 6 -34 164 -195 1483 -1515
1608 -1608 1494 -1501 1589 -1483 49 9 109 69 118 118 18 95 124 -18 -1473
1580 -864 866 -1480 1475 -1499 1483 -40 17 -89 17 -128 0z"/>
<path d="M1535 3346 c-37 -17 -70 -52 -84 -89 -16 -41 -13 -276 4 -387 46
-303 222 -582 479 -759 70 -48 240 -126 326 -150 98 -26 239 -44 307 -39 57 5
92 25 127 72 29 39 29 133 0 172 -40 55 -67 66 -169 75 -279 23 -492 146 -635
366 -92 140 -120 244 -129 475 -7 191 -10 204 -73 251 -34 25 -113 32 -153 13z"/>
<path d="M1055 2546 c-42 -19 -83 -69 -91 -113 -9 -48 11 -176 43 -278 113
-359 397 -631 798 -764 243 -81 426 -106 765 -105 290 0 501 24 565 64 39 24
75 92 75 141 -1 80 -92 167 -165 155 -16 -2 -77 -12 -135 -22 -149 -25 -540
-26 -698 -1 -321 50 -537 145 -703 307 -134 132 -205 275 -228 454 -10 82 -25
113 -73 149 -33 25 -113 32 -153 13z"/>
<path d="M3935 2546 c-17 -7 -43 -28 -58 -45 -26 -31 -29 -44 -43 -146 -3 -27
-17 -84 -30 -125 -29 -90 -30 -134 -5 -180 50 -95 182 -110 258 -28 46 49 95
227 97 350 1 93 -9 119 -66 161 -33 25 -113 32 -153 13z"/>
<path d="M2485 1111 c-135 -35 -231 -150 -243 -287 -10 -126 53 -240 168 -303
60 -33 71 -36 150 -36 72 1 93 5 136 27 75 40 107 70 145 140 31 58 34 70 34
148 0 78 -3 90 -34 148 -57 104 -144 160 -260 167 -36 2 -79 1 -96 -4z"/>
</g>
</svg>
